<?xml version="1.0" encoding="UTF-8"?>
<svg id="Layer_2" data-name="Layer 2" xmlns="http://www.w3.org/2000/svg" viewBox="0 0 172.92 86.64">
  <defs>
    <style>
      .cls-1 {
        fill: red;
      }
    </style>
  </defs>
  <g id="Layer_1-2" data-name="Layer 1">
    <g>
      <path class="cls-1" d="M103.23,57.77l17.04-13.58-3.75-1.54c-.68-.28-1.03-1.03-.8-1.73l3.4-10.4-9.75,2.2c-.68,.15-1.36-.21-1.61-.85l-1.74-4.41-7.64,8.37c-.82,.89-2.29,.15-2.06-1.04l3.76-19.18-5.69,3.48c-.7,.43-1.61,.17-1.98-.57l-5.95-11.8-5.95,11.8c-.37,.73-1.28,.99-1.98,.57l-5.69-3.48,3.76,19.18c.23,1.19-1.24,1.93-2.06,1.04l-7.64-8.37-1.74,4.41c-.25,.64-.94,1.01-1.61,.85l-9.75-2.2,3.4,10.4c.23,.7-.12,1.45-.8,1.73l-3.75,1.54,17.04,13.58c.47,.38,.65,1.02,.44,1.59l-2.18,5.84,15.65-2.93c1.06-.2,2.02,.64,1.96,1.72l-.82,15.73h3.46l-.82-15.73c-.06-1.07,.91-1.92,1.96-1.72l15.65,2.93-2.18-5.84c-.21-.57-.04-1.21,.44-1.59Z"/>
      <rect class="cls-1" width="43.11" height="86.64"/>
      <rect class="cls-1" x="129.81" width="43.11" height="86.64"/>
    </g>
  </g>
</svg>